<!DOCTYPE svg PUBLIC "-//W3C//DTD SVG 1.1//EN" "http://www.w3.org/Graphics/SVG/1.1/DTD/svg11.dtd">
<!-- Uploaded to: SVG Repo, www.svgrepo.com, Transformed by: SVG Repo Mixer Tools -->
<svg width="800px" height="800px" viewBox="0 0 24 24" id="magicoon-Regular" xmlns="http://www.w3.org/2000/svg" fill="#000000">
<g id="SVGRepo_bgCarrier" stroke-width="0"/>
<g id="SVGRepo_tracerCarrier" stroke-linecap="round" stroke-linejoin="round"/>
<g id="SVGRepo_iconCarrier"> <defs> <style>.cls-1{fill:#000000;}</style> </defs> <title>menu</title> <g id="menu-Regular"> <path id="menu-Regular-2" data-name="menu-Regular" class="cls-1" d="M2.25,5A.75.75,0,0,1,3,4.25H16a.75.75,0,0,1,0,1.5H3A.75.75,0,0,1,2.25,5ZM21,11.25H3a.75.75,0,0,0,0,1.5H21a.75.75,0,0,0,0-1.5Zm-9,7H3a.75.75,0,0,0,0,1.5h9a.75.75,0,0,0,0-1.5Z"/> </g> </g>
</svg>