<?xml version="1.0" encoding="utf-8"?>
<!-- Uploaded to: SVG Repo, www.svgrepo.com, Generator: SVG Repo Mixer Tools -->
<svg width="800px" height="800px" viewBox="0 -4.5 256 256" xmlns="http://www.w3.org/2000/svg" xmlns:xlink="http://www.w3.org/1999/xlink" preserveAspectRatio="xMidYMid">
  <defs>
    <style>

      .cls-3 {
        fill: #fcc402;
      }

      .cls-4 {
        fill: #fce202;
      }

      .cls-5 {
        fill: #fc9502;
      }

      .cls-6 {
        fill: #a74920;
      }
    </style>
  </defs>
  <g id="tape_line">
    <path d="M246.000,26.434 C246.000,37.109 246.000,80.113 246.000,98.000 C246.000,118.500 10.000,221.000 10.000,221.000 C10.000,221.000 10.000,149.000 10.000,149.000 C10.000,129.277 229.376,33.652 246.000,26.434 Z" id="path-1" class="cls-3" fill-rule="evenodd"/>
    <path d="M128.000,78.000 C56.026,78.000 27.951,85.279 17.000,91.054 C17.000,91.054 17.000,13.054 17.000,13.054 C27.951,7.279 56.026,-0.000 128.000,-0.000 C243.531,-0.000 245.962,18.755 246.000,19.941 C246.000,19.941 246.000,97.941 246.000,97.941 C245.962,96.755 243.531,78.000 128.000,78.000 ZM239.000,155.946 C239.000,155.946 239.000,233.946 239.000,233.946 C228.049,239.721 199.974,247.000 128.000,247.000 C12.469,247.000 10.038,228.244 10.000,227.059 C10.000,227.059 10.000,149.059 10.000,149.059 C10.038,150.245 12.469,169.000 128.000,169.000 C199.974,169.000 228.049,161.721 239.000,155.946 Z" id="path-2" class="cls-4" fill-rule="evenodd"/>
    <path d="M178.000,23.000 C175.791,23.000 174.000,21.209 174.000,19.000 C174.000,19.000 174.000,1.218 174.000,1.218 C176.772,1.383 179.438,1.562 182.000,1.755 C182.000,1.755 182.000,19.000 182.000,19.000 C182.000,21.209 180.209,23.000 178.000,23.000 ZM132.000,0.010 C132.000,0.010 132.000,43.000 132.000,43.000 C132.000,45.209 130.209,47.000 128.000,47.000 C125.791,47.000 124.000,45.209 124.000,43.000 C124.000,43.000 124.000,0.013 124.000,0.013 C125.328,0.007 126.641,-0.000 128.000,-0.000 C129.354,-0.000 130.677,0.005 132.000,0.010 ZM82.000,19.000 C82.000,21.209 80.209,23.000 78.000,23.000 C75.791,23.000 74.000,21.209 74.000,19.000 C74.000,19.000 74.000,1.759 74.000,1.759 C76.568,1.566 79.221,1.383 82.000,1.218 C82.000,1.218 82.000,19.000 82.000,19.000 ZM32.000,52.000 C32.000,54.209 30.209,56.000 28.000,56.000 C25.791,56.000 24.000,54.209 24.000,52.000 C24.000,52.000 24.000,10.096 24.000,10.096 C26.275,9.305 28.925,8.515 32.000,7.743 C32.000,7.743 32.000,52.000 32.000,52.000 ZM32.000,161.262 C32.000,161.262 32.000,203.000 32.000,203.000 C32.000,205.209 30.209,207.000 28.000,207.000 C25.791,207.000 24.000,205.209 24.000,203.000 C24.000,203.000 24.000,158.907 24.000,158.907 C26.278,159.698 28.920,160.489 32.000,161.262 ZM78.000,191.000 C75.791,191.000 74.000,189.209 74.000,187.000 C74.000,187.000 74.000,167.244 74.000,167.244 C76.562,167.437 79.228,167.616 82.000,167.781 C82.000,167.781 82.000,187.000 82.000,187.000 C82.000,189.209 80.209,191.000 78.000,191.000 ZM124.000,212.000 C124.000,212.000 124.000,168.990 124.000,168.990 C125.323,168.995 126.646,169.000 128.000,169.000 C129.359,169.000 130.672,168.992 132.000,168.987 C132.000,168.987 132.000,212.000 132.000,212.000 C132.000,214.209 130.209,216.000 128.000,216.000 C125.791,216.000 124.000,214.209 124.000,212.000 ZM228.000,207.000 C225.791,207.000 224.000,205.209 224.000,203.000 C224.000,203.000 224.000,161.256 224.000,161.256 C227.075,160.484 229.725,159.694 232.000,158.904 C232.000,158.904 232.000,203.000 232.000,203.000 C232.000,205.209 230.209,207.000 228.000,207.000 ZM178.000,191.000 C175.791,191.000 174.000,189.209 174.000,187.000 C174.000,187.000 174.000,167.782 174.000,167.782 C176.779,167.616 179.431,167.434 182.000,167.241 C182.000,167.241 182.000,187.000 182.000,187.000 C182.000,189.209 180.209,191.000 178.000,191.000 ZM228.000,56.000 C225.791,56.000 224.000,54.209 224.000,52.000 C224.000,52.000 224.000,7.738 224.000,7.738 C227.080,8.510 229.722,9.302 232.000,10.093 C232.000,10.093 232.000,52.000 232.000,52.000 C232.000,54.209 230.209,56.000 228.000,56.000 Z" id="path-3" class="cls-5" fill-rule="evenodd"/>
    <path d="M248.000,236.000 C248.000,236.000 239.000,236.000 239.000,236.000 C239.000,236.000 239.000,153.000 239.000,153.000 C239.000,153.000 248.000,153.000 248.000,153.000 C252.418,153.000 256.000,156.582 256.000,161.000 C256.000,161.000 256.000,228.000 256.000,228.000 C256.000,232.418 252.418,236.000 248.000,236.000 ZM-0.000,86.000 C-0.000,86.000 -0.000,19.000 -0.000,19.000 C-0.000,14.582 3.582,11.000 8.000,11.000 C8.000,11.000 17.000,11.000 17.000,11.000 C17.000,11.000 17.000,94.000 17.000,94.000 C17.000,94.000 8.000,94.000 8.000,94.000 C3.582,94.000 -0.000,90.418 -0.000,86.000 Z" id="path-4" class="cls-6" fill-rule="evenodd"/>
  </g>
</svg>