<!DOCTYPE svg PUBLIC "-//W3C//DTD SVG 1.1//EN" "http://www.w3.org/Graphics/SVG/1.1/DTD/svg11.dtd">
<!-- Uploaded to: SVG Repo, www.svgrepo.com, Transformed by: SVG Repo Mixer Tools -->
<svg width="800px" height="800px" viewBox="0 -7.5 63 63" version="1.1" xmlns="http://www.w3.org/2000/svg" xmlns:xlink="http://www.w3.org/1999/xlink" xmlns:sketch="http://www.bohemiancoding.com/sketch/ns" fill="#000000">
<g id="SVGRepo_bgCarrier" stroke-width="0"/>
<g id="SVGRepo_tracerCarrier" stroke-linecap="round" stroke-linejoin="round"/>
<g id="SVGRepo_iconCarrier"> <title>Weather-wind</title> <desc>Created with Sketch.</desc> <defs> </defs> <g id="Page-1" stroke="none" stroke-width="1" fill="none" fill-rule="evenodd" sketch:type="MSPage"> <g id="Weather-wind" sketch:type="MSLayerGroup" transform="translate(0.000000, 1.000000)" stroke="#FFE142" stroke-width="2"> <path d="M34.8,8.5 C34.8,3.8 38.7,0 43.4,0 C48.2,0 52,3.8 52,8.5 C52,13.2 48.1,17 43.4,17 L4,17" id="Shape" sketch:type="MSShapeGroup"> </path> <path d="M47,30.5 C47,34.6 50.3,38 54.5,38 C58.6,38 62,34.6 62,30.5 C62,26.4 58.7,23 54.5,23 L20,23" id="Shape" sketch:type="MSShapeGroup"> </path> <path d="M27,38.5 C27,42.6 30.3,46 34.4,46 C38.5,46 41.8,42.7 41.8,38.5 C41.8,34.4 38.5,31 34.4,31 L0,31" id="Shape" sketch:type="MSShapeGroup"> </path> </g> </g> </g>
</svg>